<?xml version="1.0" standalone="no"?>
<!DOCTYPE svg PUBLIC "-//W3C//DTD SVG 20010904//EN"
 "http://www.w3.org/TR/2001/REC-SVG-20010904/DTD/svg10.dtd">
<svg version="1.0" xmlns="http://www.w3.org/2000/svg"
 width="2800.000000pt" height="764.000000pt" viewBox="0 0 2800.000000 764.000000"
 preserveAspectRatio="xMidYMid meet">

<g transform="translate(0.000000,764.000000) scale(0.100000,-0.100000)"
fill="#000000" stroke="none">
<path d="M0 3820 l0 -3820 14000 0 14000 0 0 3820 0 3820 -14000 0 -14000 0 0
-3820z m22327 1248 c57 -27 110 -91 129 -156 22 -75 6 -140 -50 -200 -54 -59
-105 -82 -184 -82 -73 0 -124 19 -170 63 -135 129 -85 324 100 388 61 22 111
18 175 -13z m-12094 -133 c182 -32 284 -81 392 -190 89 -88 137 -169 177 -295
19 -64 23 -96 23 -215 -1 -163 -15 -226 -78 -355 -79 -161 -227 -276 -427
-331 -65 -18 -113 -22 -357 -26 l-283 -5 -2 -342 -3 -341 -225 0 -225 0 -3
1045 c-1 575 0 1051 3 1058 7 19 893 17 1008 -3z m11185 -307 l2 -198 155 0
155 0 0 -170 0 -170 -155 0 -155 0 0 -406 c0 -355 2 -410 16 -440 27 -57 96
-79 193 -63 30 5 57 6 60 3 10 -10 70 -319 63 -326 -41 -39 -308 -60 -429 -35
-176 38 -296 148 -339 312 -11 38 -14 157 -14 502 l0 452 -112 3 -113 3 -3
167 -2 167 112 3 113 3 3 198 2 197 223 -2 222 -3 3 -197z m-9359 -195 c3 -4
5 -93 3 -196 l-3 -188 -67 8 c-247 30 -395 -57 -442 -259 -5 -25 -10 -237 -10
-505 l0 -463 -220 0 -220 0 0 800 0 800 215 0 215 0 0 -137 0 -138 32 64 c58
116 148 194 255 221 44 11 232 6 242 -7z m1100 -12 c215 -56 354 -165 450
-351 75 -147 102 -259 102 -434 -1 -183 -28 -301 -103 -447 -68 -133 -164
-229 -300 -299 -121 -64 -208 -83 -373 -84 -166 -1 -236 14 -370 79 -202 98
-335 263 -396 491 -18 65 -22 109 -23 244 0 175 15 272 63 382 78 183 245 337
436 403 145 50 358 56 514 16z m1706 0 c167 -44 283 -120 357 -236 34 -52 87
-190 77 -199 -2 -2 -74 -9 -159 -15 -85 -7 -174 -14 -197 -17 -41 -6 -42 -5
-58 32 -51 122 -211 182 -362 136 -95 -29 -128 -64 -128 -137 0 -96 41 -119
333 -185 271 -61 336 -82 413 -131 64 -41 136 -120 162 -177 32 -71 36 -210 8
-300 -51 -169 -213 -307 -427 -363 -215 -56 -544 -20 -711 78 -131 77 -234
221 -257 359 l-7 41 133 7 c73 4 169 9 214 13 l80 6 12 -39 c16 -54 64 -108
119 -136 42 -20 63 -23 158 -23 99 0 116 3 168 27 49 23 61 34 78 73 26 60 18
105 -27 145 -38 33 -99 53 -228 76 -149 25 -356 82 -433 119 -89 42 -159 109
-199 190 -27 56 -29 68 -29 180 0 114 2 123 32 188 75 159 227 259 456 303
104 20 319 12 422 -15z m1799 4 c151 -42 287 -145 365 -278 87 -148 128 -350
118 -581 -11 -267 -74 -432 -222 -581 -120 -120 -256 -175 -436 -175 -166 0
-278 48 -390 168 l-69 74 0 -408 0 -409 -88 -3 c-48 -1 -147 0 -219 4 l-133 6
0 1094 0 1094 215 0 c118 0 216 -3 216 -7 1 -5 4 -59 8 -121 l6 -114 43 62
c69 98 183 169 312 194 46 9 214 -3 274 -19z m1696 -5 c140 -36 252 -100 333
-190 143 -159 197 -323 197 -596 l0 -114 -550 0 c-433 0 -550 -3 -550 -12 1
-37 34 -147 57 -190 55 -102 164 -168 288 -176 139 -9 245 35 307 127 17 25
32 47 34 49 1 2 93 -2 204 -9 l202 -13 -6 -31 c-9 -46 -71 -165 -112 -215 -88
-106 -221 -188 -369 -226 -105 -28 -360 -25 -470 4 -274 74 -447 242 -531 517
-26 85 -28 102 -28 280 0 179 1 195 27 278 59 190 160 331 306 426 176 113
437 150 661 91z m1754 1 c242 -64 389 -198 454 -411 11 -36 23 -89 27 -117 l7
-53 -214 0 -214 0 -12 48 c-26 97 -105 179 -197 203 -54 15 -162 7 -206 -15
-68 -32 -117 -84 -153 -159 -45 -94 -60 -169 -59 -297 1 -217 71 -363 208
-431 60 -29 70 -31 143 -27 135 8 227 77 266 200 13 42 22 57 39 60 21 4 129
4 315 0 l82 -2 0 -28 c0 -50 -38 -181 -72 -245 -51 -97 -173 -213 -280 -266
-192 -94 -439 -106 -648 -32 -113 40 -184 85 -276 176 -70 69 -88 95 -132 185
-72 150 -95 252 -94 420 0 166 28 287 99 430 127 256 386 396 713 386 84 -3
151 -11 204 -25z m3516 14 c226 -40 373 -133 449 -283 60 -118 61 -131 61
-754 l0 -568 -210 0 -210 0 0 107 0 106 -29 -40 c-129 -178 -410 -251 -656
-168 -99 33 -161 71 -224 141 -77 85 -95 141 -96 304 0 118 3 142 23 191 74
183 267 277 652 319 237 25 300 56 300 144 0 81 -31 130 -105 169 -56 29 -173
35 -249 13 -72 -21 -141 -81 -158 -138 l-12 -39 -45 5 c-25 3 -111 11 -191 16
-80 6 -150 13 -156 15 -18 5 0 84 35 152 102 203 333 319 641 322 52 1 133 -6
180 -14z m-1190 -805 l0 -800 -222 2 -223 3 0 790 c-1 435 1 793 3 798 2 4
102 7 223 7 l219 0 0 -800z"/>
<path d="M9680 4235 l0 -347 228 4 c213 3 230 5 280 27 65 29 134 104 157 169
63 182 -4 386 -152 458 -58 29 -59 29 -285 32 l-228 4 0 -347z"/>
<path d="M12875 4100 c-168 -34 -255 -162 -280 -411 -8 -80 8 -227 34 -302 50
-144 157 -227 295 -231 157 -4 275 107 323 301 22 92 21 267 -1 352 -56 210
-203 325 -371 291z"/>
<path d="M16280 4081 c-163 -53 -249 -206 -250 -442 0 -261 106 -428 297 -469
93 -20 219 27 277 103 66 86 96 200 96 363 0 166 -34 275 -111 359 -62 67
-108 88 -204 91 -44 2 -91 0 -105 -5z"/>
<path d="M18040 4105 c-30 -9 -72 -27 -93 -41 -65 -43 -129 -148 -143 -235
l-7 -39 334 2 334 3 -3 30 c-7 74 -45 159 -91 205 -76 76 -214 107 -331 75z"/>
<path d="M23623 3550 c-29 -10 -101 -26 -160 -35 -251 -36 -348 -110 -327
-245 14 -87 67 -132 175 -149 154 -25 306 48 359 172 18 40 24 78 28 165 5
127 9 122 -75 92z"/>
</g>
</svg>
